<svg id="visual" viewBox="0 0 900 600" width="900" height="600" xmlns="http://www.w3.org/2000/svg" xmlns:xlink="http://www.w3.org/1999/xlink" version="1.1"><rect x="0" y="0" width="900" height="600" fill="#000000"></rect><path d="M0 231L21.5 217.7C43 204.3 86 177.7 128.8 174.2C171.7 170.7 214.3 190.3 257.2 195.5C300 200.7 343 191.3 385.8 194.5C428.7 197.7 471.3 213.3 514.2 221.8C557 230.3 600 231.7 642.8 223.8C685.7 216 728.3 199 771.2 190.3C814 181.7 857 181.3 878.5 181.2L900 181L900 0L878.5 0C857 0 814 0 771.2 0C728.3 0 685.7 0 642.8 0C600 0 557 0 514.2 0C471.3 0 428.7 0 385.8 0C343 0 300 0 257.2 0C214.3 0 171.7 0 128.8 0C86 0 43 0 21.5 0L0 0Z" fill="#fa7268"></path><path d="M0 157L21.5 155.8C43 154.7 86 152.3 128.8 153.3C171.7 154.3 214.3 158.7 257.2 157.5C300 156.3 343 149.7 385.8 155.5C428.7 161.3 471.3 179.7 514.2 189.8C557 200 600 202 642.8 202.5C685.7 203 728.3 202 771.2 197.3C814 192.7 857 184.3 878.5 180.2L900 176L900 0L878.5 0C857 0 814 0 771.2 0C728.3 0 685.7 0 642.8 0C600 0 557 0 514.2 0C471.3 0 428.7 0 385.8 0C343 0 300 0 257.2 0C214.3 0 171.7 0 128.8 0C86 0 43 0 21.5 0L0 0Z" fill="#ef5f67"></path><path d="M0 134L21.5 138C43 142 86 150 128.8 149.7C171.7 149.3 214.3 140.7 257.2 136C300 131.3 343 130.7 385.8 131.5C428.7 132.3 471.3 134.7 514.2 133.5C557 132.3 600 127.7 642.8 121.5C685.7 115.3 728.3 107.7 771.2 107.5C814 107.3 857 114.7 878.5 118.3L900 122L900 0L878.5 0C857 0 814 0 771.2 0C728.3 0 685.7 0 642.8 0C600 0 557 0 514.2 0C471.3 0 428.7 0 385.8 0C343 0 300 0 257.2 0C214.3 0 171.7 0 128.8 0C86 0 43 0 21.5 0L0 0Z" fill="#e34c67"></path><path d="M0 115L21.5 113.3C43 111.7 86 108.3 128.8 108.5C171.7 108.7 214.3 112.3 257.2 112.8C300 113.3 343 110.7 385.8 108C428.7 105.3 471.3 102.7 514.2 103.7C557 104.7 600 109.3 642.8 109.2C685.7 109 728.3 104 771.2 101.2C814 98.3 857 97.7 878.5 97.3L900 97L900 0L878.5 0C857 0 814 0 771.2 0C728.3 0 685.7 0 642.8 0C600 0 557 0 514.2 0C471.3 0 428.7 0 385.8 0C343 0 300 0 257.2 0C214.3 0 171.7 0 128.8 0C86 0 43 0 21.5 0L0 0Z" fill="#d53867"></path><path d="M0 26L21.5 26C43 26 86 26 128.8 30.2C171.7 34.3 214.3 42.7 257.2 49.7C300 56.7 343 62.3 385.8 64.7C428.7 67 471.3 66 514.2 64.8C557 63.7 600 62.3 642.8 63.3C685.7 64.3 728.3 67.7 771.2 64.7C814 61.7 857 52.3 878.5 47.7L900 43L900 0L878.5 0C857 0 814 0 771.2 0C728.3 0 685.7 0 642.8 0C600 0 557 0 514.2 0C471.3 0 428.7 0 385.8 0C343 0 300 0 257.2 0C214.3 0 171.7 0 128.8 0C86 0 43 0 21.5 0L0 0Z" fill="#c62368"></path></svg>